<svg width="430.746" height="102.333" viewBox="0 0 430.746 102.333" xmlns="http://www.w3.org/2000/svg">
    <g id="svgGroup" stroke-linecap="round" fill-rule="nonzero" font-size="9pt" stroke="none" fill="#1a77f0">
        <path d="M 19.705 101.407 L 0 101.407 L 9.795 0.001 L 44.192 0.001 L 53.814 101.407 L 34.628 101.407 L 33.188 85.044 L 20.973 85.044 L 19.705 101.407 Z M 26.273 17.286 L 22.413 68.853 L 31.632 68.853 L 27.195 17.286 L 26.273 17.286 Z" id="0" vector-effect="non-scaling-stroke"/>

        <path d="M 59.115 73.924 L 59.115 36.357 A 46.055 46.055 0 0 1 59.534 29.954 Q 60.333 24.27 62.659 20.224 A 11.781 11.781 0 0 1 71.202 14.354 A 19.336 19.336 0 0 1 74.672 14.059 A 23.687 23.687 0 0 1 78.313 14.321 Q 80.217 14.618 81.755 15.251 A 10.558 10.558 0 0 1 84.323 16.739 A 15.527 15.527 0 0 1 87.94 20.909 A 20.789 20.789 0 0 1 89.537 24.2 L 89.537 0.001 L 110.51 0.001 L 110.51 101.407 L 89.537 101.407 L 89.537 92.246 A 23.867 23.867 0 0 1 87.879 95.835 Q 86.605 98.055 84.957 99.621 A 9.155 9.155 0 0 1 81.334 101.694 Q 79.944 102.13 78.269 102.267 A 19.465 19.465 0 0 1 76.688 102.329 Q 72.438 102.329 69.434 101.227 A 12.171 12.171 0 0 1 67.182 100.14 A 13.417 13.417 0 0 1 61.938 94.09 A 25.654 25.654 0 0 1 60.435 89.614 A 35.299 35.299 0 0 1 59.663 85.044 A 98.708 98.708 0 0 1 59.192 78.269 A 119.814 119.814 0 0 1 59.115 73.924 Z M 89.537 75.364 L 89.537 39.008 Q 89.537 35.954 88.644 32.987 A 4.956 4.956 0 0 0 87.971 31.552 Q 87.069 30.271 85.387 30.061 A 5.564 5.564 0 0 0 84.697 30.019 A 5.971 5.971 0 0 0 83.118 30.213 Q 81.129 30.758 80.491 32.843 A 19.785 19.785 0 0 0 79.711 36.97 A 24.078 24.078 0 0 0 79.627 39.008 L 79.627 75.364 A 35.754 35.754 0 0 0 79.787 78.907 Q 80.517 86.196 84.582 86.196 A 5.609 5.609 0 0 0 86.082 86.009 A 3.6 3.6 0 0 0 88.529 83.834 A 8.44 8.44 0 0 0 88.97 82.419 Q 89.537 79.945 89.537 75.364 Z" id="1" vector-effect="non-scaling-stroke"/>

        <path d="M 139.088 101.407 L 118.461 101.407 L 118.461 14.981 L 138.627 14.981 L 138.627 25.007 A 19.586 19.586 0 0 1 140.006 21.244 Q 141.315 18.603 143.352 16.883 Q 145.94 14.696 150.396 14.203 A 25.051 25.051 0 0 1 153.146 14.059 A 18.787 18.787 0 0 1 157.392 14.517 A 14.175 14.175 0 0 1 161.991 16.451 A 12.907 12.907 0 0 1 167.147 22.76 A 23.092 23.092 0 0 1 169.332 19.473 Q 170.884 17.543 172.708 16.278 Q 175.905 14.059 181.84 14.059 A 27.122 27.122 0 0 1 186.018 14.36 Q 188.237 14.707 190.027 15.453 A 12.193 12.193 0 0 1 192.931 17.142 A 15.229 15.229 0 0 1 197.485 23.209 A 19.901 19.901 0 0 1 198.347 25.669 A 39.187 39.187 0 0 1 199.486 31.49 Q 199.826 34.262 199.868 37.365 A 65.373 65.373 0 0 1 199.874 38.259 L 199.874 101.407 L 179.305 101.407 L 179.305 37.913 Q 179.305 29.558 175.041 29.558 A 5.281 5.281 0 0 0 173.589 29.747 A 3.841 3.841 0 0 0 171.584 31.085 A 8.077 8.077 0 0 0 170.341 33.337 A 10.576 10.576 0 0 0 169.913 34.859 Q 169.452 37.106 169.452 39.353 L 169.452 101.407 L 148.883 101.407 L 148.883 37.913 Q 148.883 35.205 148.22 32.497 Q 147.63 30.084 145.416 29.821 A 4.8 4.8 0 0 0 144.85 29.789 A 5.071 5.071 0 0 0 143.271 30.023 A 4.023 4.023 0 0 0 141.277 31.46 A 8.761 8.761 0 0 0 140.011 33.844 A 11.599 11.599 0 0 0 139.549 35.579 A 25.987 25.987 0 0 0 139.088 40.354 A 23.996 23.996 0 0 0 139.088 40.39 L 139.088 101.407 Z" id="2" vector-effect="non-scaling-stroke"/>
    </g>
    <g>
        <path d="M 235.481 101.407 L 208.286 101.407 L 208.286 0.001 L 236.173 0.001 Q 247.12 0.001 252.651 6.079 Q 257.187 11.064 258.004 19.827 A 43.458 43.458 0 0 1 258.183 23.854 L 258.183 71.331 Q 258.183 80.706 256.047 87.299 A 26.802 26.802 0 0 1 253.141 93.571 Q 248.1 101.407 235.481 101.407 Z M 228.683 17.747 L 228.683 83.488 L 232.197 83.488 Q 236.609 83.488 237.538 80.113 A 7.7 7.7 0 0 0 237.786 78.072 L 237.786 25.756 Q 237.786 20.994 236.592 19.408 A 2.523 2.523 0 0 0 236.432 19.216 A 3.442 3.442 0 0 0 235.278 18.426 Q 234.167 17.933 232.375 17.798 A 19.319 19.319 0 0 0 230.93 17.747 L 228.683 17.747 Z" id="3" vector-effect="non-scaling-stroke"/><path d="M 281.633 49.955 L 294.424 45.576 L 294.424 36.703 A 15.988 15.988 0 0 0 294.264 34.334 Q 293.81 31.324 292.072 30.283 A 4.202 4.202 0 0 0 289.872 29.731 Q 285.724 29.731 285.724 35.378 L 285.724 40.563 L 265.673 40.563 A 6.299 6.299 0 0 1 265.64 40.216 Q 265.615 39.855 265.615 39.382 L 265.615 37.74 Q 265.615 30.292 267.64 25.348 A 15.652 15.652 0 0 1 271.694 19.447 Q 277.541 14.265 289.972 14.067 A 62.665 62.665 0 0 1 290.967 14.059 A 33.477 33.477 0 0 1 297.906 14.751 A 26.967 26.967 0 0 1 303.354 16.508 Q 308.828 18.957 312.026 23.739 A 18.458 18.458 0 0 1 314.736 30.402 A 25.857 25.857 0 0 1 315.224 35.551 L 315.224 101.407 L 294.712 101.407 L 294.712 91.151 Q 293.214 96.567 289.757 99.448 A 11.985 11.985 0 0 1 281.863 102.329 Q 274.661 102.329 270.887 98.987 A 15.693 15.693 0 0 1 266.897 93.383 A 21.345 21.345 0 0 1 265.73 89.826 Q 264.348 84.007 264.348 76.632 A 66.173 66.173 0 0 1 264.531 71.542 Q 264.723 69.061 265.116 66.947 A 28.962 28.962 0 0 1 265.903 63.697 A 17.93 17.93 0 0 1 268.995 57.741 A 16.878 16.878 0 0 1 271.233 55.429 A 23.141 23.141 0 0 1 274.77 52.969 Q 277.699 51.289 281.633 49.955 Z M 294.366 79.57 L 294.366 55.486 A 22.818 22.818 0 0 0 291.243 57.022 Q 289.152 58.269 287.74 59.836 Q 285.378 62.458 285.378 67.528 L 285.378 78.648 A 19.05 19.05 0 0 0 285.54 81.253 Q 285.942 84.148 287.34 85.386 A 3.845 3.845 0 0 0 289.987 86.311 A 4.623 4.623 0 0 0 291.35 86.123 Q 292.796 85.678 293.444 84.18 A 11.4 11.4 0 0 0 294.362 79.898 A 13.136 13.136 0 0 0 294.366 79.57 Z" id="4" vector-effect="non-scaling-stroke"/>

        <path d="M 321.273 76.401 L 321.273 69.545 L 342.016 69.545 L 342.016 79.685 Q 342.016 82.624 343.168 84.295 A 3.707 3.707 0 0 0 345.456 85.815 A 6.067 6.067 0 0 0 346.855 85.966 A 4.115 4.115 0 0 0 349.213 85.316 Q 350.822 84.229 351.219 81.325 A 15.561 15.561 0 0 0 351.35 79.224 A 21.507 21.507 0 0 0 351.141 76.123 Q 350.91 74.541 350.423 73.269 A 8.555 8.555 0 0 0 348.987 70.784 A 33.112 33.112 0 0 0 345.816 67.536 A 41.932 41.932 0 0 0 343.226 65.396 L 332.221 56.927 A 38.834 38.834 0 0 1 328.158 53.309 Q 325.85 50.927 324.327 48.399 Q 321.619 43.905 321.619 35.896 A 25.658 25.658 0 0 1 322.16 30.485 Q 322.977 26.695 325.029 23.809 A 16.391 16.391 0 0 1 325.163 23.624 A 21.207 21.207 0 0 1 334.543 16.426 A 24.28 24.28 0 0 1 334.554 16.422 A 32.929 32.929 0 0 1 345.516 14.096 A 38.149 38.149 0 0 1 347.201 14.059 A 36.242 36.242 0 0 1 357.143 15.302 Q 368.29 18.488 371.251 29.841 A 36.845 36.845 0 0 1 372.322 39.123 L 372.322 40.736 L 351.004 40.736 L 351.004 37.452 Q 351.004 34.859 350.111 32.439 Q 349.334 30.333 347.269 30.06 A 4.91 4.91 0 0 0 346.625 30.019 A 5.975 5.975 0 0 0 344.866 30.256 Q 342.246 31.064 342.246 34.629 A 9.46 9.46 0 0 0 342.855 38.088 Q 343.744 40.372 345.934 41.946 L 358.725 51.28 A 41.439 41.439 0 0 1 368.779 61.536 A 21.527 21.527 0 0 1 371.744 68.143 Q 372.498 70.935 372.734 74.227 A 43.395 43.395 0 0 1 372.841 77.323 A 34.264 34.264 0 0 1 372.098 84.692 Q 371.059 89.408 368.568 92.906 A 19.418 19.418 0 0 1 365.898 95.933 A 23.159 23.159 0 0 1 355.838 101.273 Q 351.772 102.329 346.855 102.329 A 36.264 36.264 0 0 1 336.654 101.021 Q 321.273 96.505 321.273 76.401 Z" id="5" vector-effect="non-scaling-stroke"/>

        <path d="M 400.382 101.407 L 379.179 101.407 L 379.179 0.001 L 400.382 0.001 L 400.382 23.566 A 17.231 17.231 0 0 1 401.96 20.168 A 12.113 12.113 0 0 1 405.51 16.393 A 13.653 13.653 0 0 1 412.026 14.128 A 17.119 17.119 0 0 1 413.576 14.059 A 22.597 22.597 0 0 1 418.481 14.557 Q 421.668 15.266 423.979 16.985 A 12.526 12.526 0 0 1 426.655 19.706 A 19.941 19.941 0 0 1 429.658 26.082 Q 430.406 28.746 430.64 31.896 A 40.071 40.071 0 0 1 430.746 34.859 L 430.746 101.407 L 409.889 101.407 L 409.889 36.184 A 11.067 11.067 0 0 0 409.729 34.251 Q 409.534 33.152 409.1 32.263 A 6.097 6.097 0 0 0 408.708 31.575 A 3.848 3.848 0 0 0 406.036 29.874 A 6.075 6.075 0 0 0 404.991 29.789 Q 403.014 29.789 401.805 31.375 A 5.307 5.307 0 0 0 401.621 31.633 A 7.261 7.261 0 0 0 400.46 34.778 A 9.408 9.408 0 0 0 400.382 36.012 L 400.382 101.407 Z" id="6" vector-effect="non-scaling-stroke"/>
    </g>
</svg>